<mxfile host="65bd71144e">
    <diagram id="hN2imFUbjWq815YW1i8x" name="Page-1">
        <mxGraphModel dx="3657" dy="1943" grid="1" gridSize="10" guides="1" tooltips="1" connect="1" arrows="1" fold="1" page="1" pageScale="1" pageWidth="850" pageHeight="1100" background="none" math="0" shadow="1">
            <root>
                <mxCell id="0"/>
                <mxCell id="1" parent="0"/>
                <mxCell id="GlmsrG5sMG7XwUcal3Ds-2" value="" style="endArrow=none;dashed=1;html=1;dashPattern=1 3;strokeWidth=2;rounded=0;startArrow=none;shadow=0;" parent="1" source="GlmsrG5sMG7XwUcal3Ds-90" edge="1">
                    <mxGeometry width="50" height="50" relative="1" as="geometry">
                        <mxPoint x="588.91" y="880" as="sourcePoint"/>
                        <mxPoint x="584.91" y="50" as="targetPoint"/>
                    </mxGeometry>
                </mxCell>
                <mxCell id="GlmsrG5sMG7XwUcal3Ds-3" value="" style="endArrow=none;dashed=1;html=1;dashPattern=1 3;strokeWidth=2;rounded=0;fillColor=#000000;shadow=0;startArrow=none;" parent="1" source="WDpgufmApOgBnWALHM8Q-29" edge="1">
                    <mxGeometry width="50" height="50" relative="1" as="geometry">
                        <mxPoint x="-480" y="875" as="sourcePoint"/>
                        <mxPoint x="-480" y="45" as="targetPoint"/>
                    </mxGeometry>
                </mxCell>
                <mxCell id="GlmsrG5sMG7XwUcal3Ds-5" value="&lt;b&gt;&lt;font style=&quot;font-size: 24px;&quot;&gt;Fetch&lt;/font&gt;&lt;/b&gt;" style="text;html=1;strokeColor=none;fillColor=none;align=center;verticalAlign=middle;whiteSpace=wrap;rounded=0;shadow=0;" parent="1" vertex="1">
                    <mxGeometry x="-660.09" y="900" width="60" height="30" as="geometry"/>
                </mxCell>
                <mxCell id="GlmsrG5sMG7XwUcal3Ds-6" value="&lt;b&gt;&lt;font style=&quot;font-size: 24px;&quot;&gt;Decode&lt;/font&gt;&lt;/b&gt;" style="text;html=1;strokeColor=none;fillColor=none;align=center;verticalAlign=middle;whiteSpace=wrap;rounded=0;shadow=0;" parent="1" vertex="1">
                    <mxGeometry x="-370.09" y="900" width="60" height="30" as="geometry"/>
                </mxCell>
                <mxCell id="GlmsrG5sMG7XwUcal3Ds-7" value="&lt;b&gt;&lt;font style=&quot;font-size: 24px;&quot;&gt;Execute&lt;/font&gt;&lt;/b&gt;" style="text;html=1;strokeColor=none;fillColor=none;align=center;verticalAlign=middle;whiteSpace=wrap;rounded=0;shadow=0;" parent="1" vertex="1">
                    <mxGeometry x="-10" y="900" width="60" height="30" as="geometry"/>
                </mxCell>
                <mxCell id="GlmsrG5sMG7XwUcal3Ds-8" value="&lt;b&gt;&lt;font style=&quot;font-size: 24px;&quot;&gt;Memory&lt;/font&gt;&lt;/b&gt;" style="text;html=1;strokeColor=none;fillColor=none;align=center;verticalAlign=middle;whiteSpace=wrap;rounded=0;shadow=0;" parent="1" vertex="1">
                    <mxGeometry x="325" y="900" width="60" height="30" as="geometry"/>
                </mxCell>
                <mxCell id="GlmsrG5sMG7XwUcal3Ds-9" value="&lt;b&gt;&lt;font style=&quot;font-size: 24px;&quot;&gt;WB&lt;/font&gt;&lt;/b&gt;" style="text;html=1;strokeColor=none;fillColor=none;align=center;verticalAlign=middle;whiteSpace=wrap;rounded=0;movable=1;resizable=1;rotatable=1;deletable=1;editable=1;connectable=1;shadow=0;" parent="1" vertex="1">
                    <mxGeometry x="694.9100000000001" y="900" width="60" height="30" as="geometry"/>
                </mxCell>
                <mxCell id="27" style="edgeStyle=orthogonalEdgeStyle;html=1;strokeWidth=3;exitX=1;exitY=0.25;exitDx=0;exitDy=0;entryX=0.75;entryY=0;entryDx=0;entryDy=0;" parent="1" source="GlmsrG5sMG7XwUcal3Ds-13" edge="1" target="45">
                    <mxGeometry relative="1" as="geometry">
                        <mxPoint x="-790" y="580" as="targetPoint"/>
                        <Array as="points">
                            <mxPoint x="-840" y="420"/>
                        </Array>
                        <mxPoint x="-620" y="410" as="sourcePoint"/>
                    </mxGeometry>
                </mxCell>
                <mxCell id="GlmsrG5sMG7XwUcal3Ds-13" value="Instruction&lt;br&gt;Memory&lt;br&gt;" style="rounded=0;whiteSpace=wrap;html=1;fontSize=24;fillColor=#333300;shadow=0;" parent="1" vertex="1">
                    <mxGeometry x="-960" y="400" width="120" height="90" as="geometry"/>
                </mxCell>
                <mxCell id="GlmsrG5sMG7XwUcal3Ds-14" style="edgeStyle=orthogonalEdgeStyle;rounded=0;orthogonalLoop=1;jettySize=auto;html=1;fontSize=24;shadow=0;strokeWidth=3;entryX=0.297;entryY=1.033;entryDx=0;entryDy=0;entryPerimeter=0;" parent="1" edge="1" target="GlmsrG5sMG7XwUcal3Ds-30">
                    <mxGeometry relative="1" as="geometry">
                        <mxPoint x="-1019.91" y="440" as="sourcePoint"/>
                        <mxPoint x="-1009.91" y="375" as="targetPoint"/>
                        <Array as="points">
                            <mxPoint x="-1019.91" y="375"/>
                        </Array>
                    </mxGeometry>
                </mxCell>
                <mxCell id="GlmsrG5sMG7XwUcal3Ds-15" style="edgeStyle=orthogonalEdgeStyle;rounded=0;orthogonalLoop=1;jettySize=auto;html=1;fontSize=24;shadow=0;strokeWidth=2;entryX=0.697;entryY=1.04;entryDx=0;entryDy=0;entryPerimeter=0;" parent="1" source="GlmsrG5sMG7XwUcal3Ds-16" edge="1" target="GlmsrG5sMG7XwUcal3Ds-30">
                    <mxGeometry relative="1" as="geometry">
                        <mxPoint x="-1009.91" y="335" as="targetPoint"/>
                        <Array as="points">
                            <mxPoint x="-1029.91" y="335"/>
                        </Array>
                    </mxGeometry>
                </mxCell>
                <mxCell id="GlmsrG5sMG7XwUcal3Ds-16" value="1" style="text;html=1;strokeColor=none;fillColor=none;align=center;verticalAlign=middle;whiteSpace=wrap;rounded=0;fontSize=24;shadow=0;" parent="1" vertex="1">
                    <mxGeometry x="-1069.91" y="330" width="19.91" height="25" as="geometry"/>
                </mxCell>
                <mxCell id="GlmsrG5sMG7XwUcal3Ds-17" style="edgeStyle=orthogonalEdgeStyle;rounded=0;orthogonalLoop=1;jettySize=auto;html=1;fontSize=24;shadow=0;strokeWidth=3;entryX=-0.01;entryY=0.448;entryDx=0;entryDy=0;entryPerimeter=0;exitX=0.992;exitY=0.373;exitDx=0;exitDy=0;exitPerimeter=0;" parent="1" edge="1" target="GlmsrG5sMG7XwUcal3Ds-13" source="GlmsrG5sMG7XwUcal3Ds-18">
                    <mxGeometry relative="1" as="geometry">
                        <Array as="points"/>
                        <mxPoint x="-1029.91" y="440" as="sourcePoint"/>
                        <mxPoint x="-919.91" y="440" as="targetPoint"/>
                    </mxGeometry>
                </mxCell>
                <mxCell id="GlmsrG5sMG7XwUcal3Ds-18" value="PC" style="rounded=0;whiteSpace=wrap;html=1;fontSize=24;fillColor=#d80073;shadow=0;fontColor=#ffffff;strokeColor=#A50040;" parent="1" vertex="1">
                    <mxGeometry x="-1090" y="425" width="40" height="40" as="geometry"/>
                </mxCell>
                <mxCell id="GlmsrG5sMG7XwUcal3Ds-20" style="edgeStyle=orthogonalEdgeStyle;rounded=0;orthogonalLoop=1;jettySize=auto;html=1;fontSize=24;entryX=0;entryY=0.25;entryDx=0;entryDy=0;shadow=0;exitX=0.466;exitY=0.997;exitDx=0;exitDy=0;exitPerimeter=0;strokeWidth=3;" parent="1" source="WDpgufmApOgBnWALHM8Q-29" target="GlmsrG5sMG7XwUcal3Ds-24" edge="1">
                    <mxGeometry relative="1" as="geometry">
                        <mxPoint x="-430" y="440" as="sourcePoint"/>
                        <Array as="points"/>
                    </mxGeometry>
                </mxCell>
                <mxCell id="GlmsrG5sMG7XwUcal3Ds-21" style="edgeStyle=orthogonalEdgeStyle;rounded=0;orthogonalLoop=1;jettySize=auto;html=1;fontSize=14;shadow=0;exitX=0.388;exitY=1.008;exitDx=0;exitDy=0;exitPerimeter=0;strokeWidth=3;entryX=0.593;entryY=0.983;entryDx=0;entryDy=0;entryPerimeter=0;" parent="1" source="GlmsrG5sMG7XwUcal3Ds-105" target="GlmsrG5sMG7XwUcal3Ds-84" edge="1">
                    <mxGeometry relative="1" as="geometry">
                        <mxPoint x="-120" y="480" as="targetPoint"/>
                        <Array as="points">
                            <mxPoint x="-120" y="509"/>
                        </Array>
                        <mxPoint x="-270" y="509" as="sourcePoint"/>
                    </mxGeometry>
                </mxCell>
                <mxCell id="GlmsrG5sMG7XwUcal3Ds-24" value="" style="rounded=1;whiteSpace=wrap;html=1;fontSize=18;arcSize=37;fillColor=#003333;shadow=0;" parent="1" vertex="1">
                    <mxGeometry x="-390.09" y="375" width="120" height="260" as="geometry"/>
                </mxCell>
                <mxCell id="GlmsrG5sMG7XwUcal3Ds-25" style="edgeStyle=orthogonalEdgeStyle;rounded=0;orthogonalLoop=1;jettySize=auto;html=1;exitX=0.581;exitY=1.004;exitDx=0;exitDy=0;entryX=0.75;entryY=0;entryDx=0;entryDy=0;fontSize=24;shadow=0;exitPerimeter=0;strokeWidth=3;" parent="1" source="GlmsrG5sMG7XwUcal3Ds-90" target="GlmsrG5sMG7XwUcal3Ds-72" edge="1">
                    <mxGeometry relative="1" as="geometry">
                        <mxPoint x="609.82" y="440" as="targetPoint"/>
                        <mxPoint x="499.8199999999998" y="350" as="sourcePoint"/>
                        <Array as="points">
                            <mxPoint x="640" y="350"/>
                            <mxPoint x="640" y="450"/>
                        </Array>
                    </mxGeometry>
                </mxCell>
                <mxCell id="GlmsrG5sMG7XwUcal3Ds-27" value="&lt;b&gt;Memory&lt;/b&gt;" style="rounded=1;whiteSpace=wrap;html=1;fontSize=18;arcSize=10;fillColor=#330033;shadow=0;" parent="1" vertex="1">
                    <mxGeometry x="375" y="285" width="120" height="120" as="geometry"/>
                </mxCell>
                <mxCell id="GlmsrG5sMG7XwUcal3Ds-28" value="&lt;b&gt;&lt;font style=&quot;font-size: 24px;&quot;&gt;ALU&lt;/font&gt;&lt;/b&gt;" style="verticalLabelPosition=middle;verticalAlign=middle;html=1;shape=trapezoid;perimeter=trapezoidPerimeter;whiteSpace=wrap;size=0.2867647058823529;arcSize=10;flipV=1;labelPosition=center;align=center;fontSize=18;rotation=-90;fillColor=#00331A;shadow=0;" parent="1" vertex="1">
                    <mxGeometry x="-55.09" y="420" width="170" height="80" as="geometry"/>
                </mxCell>
                <mxCell id="GlmsrG5sMG7XwUcal3Ds-29" style="edgeStyle=orthogonalEdgeStyle;rounded=0;orthogonalLoop=1;jettySize=auto;html=1;exitX=0.5;exitY=1;exitDx=0;exitDy=0;entryX=0.75;entryY=0;entryDx=0;entryDy=0;strokeColor=#FFFFFF;fontSize=14;fillColor=#000000;shadow=0;strokeWidth=3;" parent="1" source="GlmsrG5sMG7XwUcal3Ds-30" target="GlmsrG5sMG7XwUcal3Ds-61" edge="1">
                    <mxGeometry relative="1" as="geometry"/>
                </mxCell>
                <mxCell id="GlmsrG5sMG7XwUcal3Ds-30" value="ADD" style="verticalLabelPosition=middle;verticalAlign=middle;html=1;shape=trapezoid;perimeter=trapezoidPerimeter;whiteSpace=wrap;size=0.23;arcSize=10;flipV=1;labelPosition=center;align=center;fontSize=18;rotation=-90;fillColor=#1A3300;shadow=0;" parent="1" vertex="1">
                    <mxGeometry x="-1020" y="325" width="100" height="60" as="geometry"/>
                </mxCell>
                <mxCell id="GlmsrG5sMG7XwUcal3Ds-31" style="edgeStyle=orthogonalEdgeStyle;rounded=0;orthogonalLoop=1;jettySize=auto;html=1;exitX=0.5;exitY=1;exitDx=0;exitDy=0;fontSize=24;shadow=0;strokeWidth=3;entryX=0.001;entryY=0.865;entryDx=0;entryDy=0;entryPerimeter=0;" parent="1" source="GlmsrG5sMG7XwUcal3Ds-72" target="GlmsrG5sMG7XwUcal3Ds-24" edge="1">
                    <mxGeometry relative="1" as="geometry">
                        <mxPoint x="559.91" y="460" as="sourcePoint"/>
                        <Array as="points">
                            <mxPoint x="880" y="470"/>
                            <mxPoint x="880" y="870"/>
                            <mxPoint x="-440" y="870"/>
                            <mxPoint x="-440" y="600"/>
                        </Array>
                        <mxPoint x="-440" y="600" as="targetPoint"/>
                    </mxGeometry>
                </mxCell>
                <mxCell id="GlmsrG5sMG7XwUcal3Ds-32" value="&lt;font style=&quot;font-size: 14px;&quot;&gt;Rsrc&lt;/font&gt;" style="text;html=1;align=center;verticalAlign=middle;resizable=0;points=[];autosize=1;strokeColor=none;fillColor=none;fontSize=24;shadow=0;" parent="1" vertex="1">
                    <mxGeometry x="-320.09000000000003" y="420" width="50" height="40" as="geometry"/>
                </mxCell>
                <mxCell id="GlmsrG5sMG7XwUcal3Ds-33" style="edgeStyle=orthogonalEdgeStyle;rounded=0;orthogonalLoop=1;jettySize=auto;html=1;fontSize=18;entryX=0.339;entryY=-0.034;entryDx=0;entryDy=0;entryPerimeter=0;shadow=0;strokeWidth=3;" parent="1" target="GlmsrG5sMG7XwUcal3Ds-92" edge="1">
                    <mxGeometry relative="1" as="geometry">
                        <mxPoint x="-140" y="440" as="sourcePoint"/>
                        <mxPoint x="59.91" y="560" as="targetPoint"/>
                        <Array as="points">
                            <mxPoint x="-140" y="560"/>
                        </Array>
                    </mxGeometry>
                </mxCell>
                <mxCell id="GlmsrG5sMG7XwUcal3Ds-34" style="edgeStyle=orthogonalEdgeStyle;rounded=0;orthogonalLoop=1;jettySize=auto;html=1;fontSize=18;entryX=0.293;entryY=0.006;entryDx=0;entryDy=0;entryPerimeter=0;shadow=0;strokeWidth=3;" parent="1" target="GlmsrG5sMG7XwUcal3Ds-92" edge="1">
                    <mxGeometry relative="1" as="geometry">
                        <mxPoint x="-170" y="510" as="sourcePoint"/>
                        <mxPoint x="62.91" y="600" as="targetPoint"/>
                        <Array as="points">
                            <mxPoint x="-170" y="510"/>
                            <mxPoint x="-170" y="601"/>
                        </Array>
                    </mxGeometry>
                </mxCell>
                <mxCell id="GlmsrG5sMG7XwUcal3Ds-38" value="&lt;font style=&quot;font-size: 14px;&quot;&gt;Address&lt;/font&gt;" style="text;html=1;align=center;verticalAlign=middle;resizable=0;points=[];autosize=1;strokeColor=none;fillColor=none;fontSize=24;shadow=0;" parent="1" vertex="1">
                    <mxGeometry x="375" y="295" width="70" height="40" as="geometry"/>
                </mxCell>
                <mxCell id="GlmsrG5sMG7XwUcal3Ds-39" value="&lt;font style=&quot;font-size: 14px;&quot;&gt;WD&lt;/font&gt;" style="text;html=1;align=center;verticalAlign=middle;resizable=0;points=[];autosize=1;strokeColor=none;fillColor=none;fontSize=24;shadow=0;" parent="1" vertex="1">
                    <mxGeometry x="370" y="362.43" width="50" height="40" as="geometry"/>
                </mxCell>
                <mxCell id="GlmsrG5sMG7XwUcal3Ds-40" value="&lt;font style=&quot;font-size: 14px;&quot;&gt;Rdst&lt;/font&gt;" style="text;html=1;align=center;verticalAlign=middle;resizable=0;points=[];autosize=1;strokeColor=none;fillColor=none;fontSize=24;shadow=0;" parent="1" vertex="1">
                    <mxGeometry x="-330.09000000000003" y="485" width="50" height="40" as="geometry"/>
                </mxCell>
                <mxCell id="GlmsrG5sMG7XwUcal3Ds-41" value="&lt;font style=&quot;&quot;&gt;&lt;font style=&quot;font-size: 18px;&quot;&gt;&lt;b&gt;Register&lt;br&gt;&lt;font style=&quot;&quot;&gt;File&lt;/font&gt;&lt;/b&gt;&lt;/font&gt;&lt;br&gt;&lt;/font&gt;" style="text;html=1;align=center;verticalAlign=middle;resizable=0;points=[];autosize=1;strokeColor=none;fillColor=none;fontSize=24;shadow=0;" parent="1" vertex="1">
                    <mxGeometry x="-380.09" y="525" width="100" height="70" as="geometry"/>
                </mxCell>
                <mxCell id="GlmsrG5sMG7XwUcal3Ds-42" value="&lt;font style=&quot;font-size: 14px;&quot;&gt;WD&lt;br&gt;&lt;br&gt;&lt;/font&gt;" style="text;html=1;align=center;verticalAlign=middle;resizable=0;points=[];autosize=1;strokeColor=none;fillColor=none;fontSize=24;shadow=0;" parent="1" vertex="1">
                    <mxGeometry x="-395.09000000000003" y="580" width="50" height="70" as="geometry"/>
                </mxCell>
                <mxCell id="GlmsrG5sMG7XwUcal3Ds-43" style="edgeStyle=orthogonalEdgeStyle;rounded=0;orthogonalLoop=1;jettySize=auto;html=1;entryX=0;entryY=0.5;entryDx=0;entryDy=0;strokeColor=#0000FF;fontSize=14;fillColor=#000000;shadow=0;exitX=0.616;exitY=0.011;exitDx=0;exitDy=0;exitPerimeter=0;" parent="1" source="18" target="GlmsrG5sMG7XwUcal3Ds-61" edge="1">
                    <mxGeometry relative="1" as="geometry">
                        <Array as="points">
                            <mxPoint x="90" y="-230"/>
                            <mxPoint x="-550" y="-230"/>
                            <mxPoint x="-550" y="105"/>
                            <mxPoint x="-825" y="105"/>
                        </Array>
                        <mxPoint x="90" y="-174" as="sourcePoint"/>
                    </mxGeometry>
                </mxCell>
                <mxCell id="GlmsrG5sMG7XwUcal3Ds-48" value="&lt;font style=&quot;font-size: 24px;&quot;&gt;&lt;b&gt;CU&lt;/b&gt;&lt;/font&gt;" style="ellipse;whiteSpace=wrap;html=1;fontSize=18;strokeColor=#FF8000;fillColor=#FF9933;shadow=0;" parent="1" vertex="1">
                    <mxGeometry x="-490.0899999999999" y="-150" width="100" height="60" as="geometry"/>
                </mxCell>
                <mxCell id="GlmsrG5sMG7XwUcal3Ds-49" value="&lt;font style=&quot;font-size: 14px&quot;&gt;Instr[6:4]&lt;/font&gt;" style="text;html=1;align=center;verticalAlign=middle;resizable=0;points=[];autosize=1;strokeColor=none;fillColor=none;fontSize=24;shadow=0;" parent="1" vertex="1">
                    <mxGeometry x="-707.59" y="495" width="70" height="40" as="geometry"/>
                </mxCell>
                <mxCell id="GlmsrG5sMG7XwUcal3Ds-51" value="&lt;font style=&quot;font-size: 14px;&quot;&gt;WA&lt;/font&gt;" style="text;html=1;align=center;verticalAlign=middle;resizable=0;points=[];autosize=1;strokeColor=none;fillColor=none;fontSize=24;shadow=0;" parent="1" vertex="1">
                    <mxGeometry x="-400" y="550" width="50" height="40" as="geometry"/>
                </mxCell>
                <mxCell id="GlmsrG5sMG7XwUcal3Ds-52" style="edgeStyle=orthogonalEdgeStyle;rounded=0;orthogonalLoop=1;jettySize=auto;html=1;strokeColor=#FFFFFF;fontSize=14;fillColor=#000000;entryX=1.004;entryY=0.594;entryDx=0;entryDy=0;shadow=0;entryPerimeter=0;strokeWidth=3;" parent="1" target="GlmsrG5sMG7XwUcal3Ds-54" edge="1">
                    <mxGeometry relative="1" as="geometry">
                        <mxPoint x="-170" y="510" as="sourcePoint"/>
                        <Array as="points">
                            <mxPoint x="-170" y="-50"/>
                            <mxPoint x="-520" y="-50"/>
                            <mxPoint x="-520" y="201"/>
                        </Array>
                    </mxGeometry>
                </mxCell>
                <mxCell id="GlmsrG5sMG7XwUcal3Ds-54" value="&lt;b&gt;Sign &lt;/b&gt;&lt;br&gt;&lt;b&gt;Extend&lt;/b&gt;" style="ellipse;whiteSpace=wrap;html=1;fontSize=14;fillColor=#001933;shadow=0;" parent="1" vertex="1">
                    <mxGeometry x="-650.09" y="165" width="80" height="60" as="geometry"/>
                </mxCell>
                <mxCell id="GlmsrG5sMG7XwUcal3Ds-55" style="edgeStyle=orthogonalEdgeStyle;rounded=0;orthogonalLoop=1;jettySize=auto;html=1;fontSize=14;shadow=0;strokeWidth=3;exitX=0.466;exitY=0.005;exitDx=0;exitDy=0;exitPerimeter=0;entryX=0.5;entryY=1;entryDx=0;entryDy=0;endArrow=none;endFill=0;startArrow=classic;startFill=1;" parent="1" target="45" edge="1" source="WDpgufmApOgBnWALHM8Q-29">
                    <mxGeometry relative="1" as="geometry">
                        <Array as="points"/>
                        <mxPoint x="-520" y="440" as="sourcePoint"/>
                        <mxPoint x="-620" y="640" as="targetPoint"/>
                    </mxGeometry>
                </mxCell>
                <mxCell id="GlmsrG5sMG7XwUcal3Ds-58" value="&lt;font style=&quot;font-size: 14px&quot;&gt;Instr[14:0]&lt;/font&gt;" style="text;html=1;align=center;verticalAlign=middle;resizable=0;points=[];autosize=1;strokeColor=none;fillColor=none;fontSize=24;shadow=0;" parent="1" vertex="1">
                    <mxGeometry x="-707.59" y="745" width="80" height="40" as="geometry"/>
                </mxCell>
                <mxCell id="GlmsrG5sMG7XwUcal3Ds-60" style="edgeStyle=orthogonalEdgeStyle;rounded=0;orthogonalLoop=1;jettySize=auto;html=1;exitX=0.5;exitY=1;exitDx=0;exitDy=0;entryX=0;entryY=0.5;entryDx=0;entryDy=0;strokeColor=#FFFFFF;fontSize=14;fillColor=#000000;shadow=0;strokeWidth=3;" parent="1" source="GlmsrG5sMG7XwUcal3Ds-61" target="GlmsrG5sMG7XwUcal3Ds-18" edge="1">
                    <mxGeometry relative="1" as="geometry"/>
                </mxCell>
                <mxCell id="GlmsrG5sMG7XwUcal3Ds-61" value="Mux&lt;br&gt;" style="verticalLabelPosition=middle;verticalAlign=middle;html=1;shape=trapezoid;perimeter=trapezoidPerimeter;whiteSpace=wrap;size=0.23;arcSize=10;flipV=1;labelPosition=center;align=center;fontSize=18;rotation=90;fillColor=#330000;shadow=0;" parent="1" vertex="1">
                    <mxGeometry x="-1015" y="180" width="80" height="50" as="geometry"/>
                </mxCell>
                <mxCell id="GlmsrG5sMG7XwUcal3Ds-62" style="edgeStyle=orthogonalEdgeStyle;rounded=0;orthogonalLoop=1;jettySize=auto;html=1;entryX=0;entryY=0.5;entryDx=0;entryDy=0;strokeColor=#FF3C26;fontSize=14;fillColor=#000000;shadow=0;strokeWidth=2;exitX=0.66;exitY=-0.002;exitDx=0;exitDy=0;exitPerimeter=0;" parent="1" target="GlmsrG5sMG7XwUcal3Ds-64" edge="1" source="GlmsrG5sMG7XwUcal3Ds-28">
                    <mxGeometry relative="1" as="geometry">
                        <mxPoint x="80" y="433" as="sourcePoint"/>
                    </mxGeometry>
                </mxCell>
                <mxCell id="GlmsrG5sMG7XwUcal3Ds-64" value="flags" style="rounded=1;whiteSpace=wrap;html=1;fontSize=14;fillColor=#000033;shadow=0;" parent="1" vertex="1">
                    <mxGeometry x="89.9" y="420" width="50" height="25" as="geometry"/>
                </mxCell>
                <mxCell id="GlmsrG5sMG7XwUcal3Ds-65" value="Branch" style="text;html=1;align=center;verticalAlign=middle;resizable=0;points=[];autosize=1;strokeColor=none;fillColor=none;fontSize=14;shadow=0;" parent="1" vertex="1">
                    <mxGeometry x="-979.91" y="135" width="70" height="30" as="geometry"/>
                </mxCell>
                <mxCell id="GlmsrG5sMG7XwUcal3Ds-66" style="edgeStyle=orthogonalEdgeStyle;rounded=0;orthogonalLoop=1;jettySize=auto;html=1;entryX=0.887;entryY=0.588;entryDx=0;entryDy=0;strokeColor=#0000FF;fontSize=14;fillColor=#000000;shadow=0;exitX=0.858;exitY=1.018;exitDx=0;exitDy=0;exitPerimeter=0;entryPerimeter=0;" parent="1" source="GlmsrG5sMG7XwUcal3Ds-92" target="GlmsrG5sMG7XwUcal3Ds-67" edge="1">
                    <mxGeometry relative="1" as="geometry">
                        <Array as="points">
                            <mxPoint x="199" y="101"/>
                            <mxPoint x="261" y="100"/>
                        </Array>
                        <mxPoint x="200" y="80" as="sourcePoint"/>
                    </mxGeometry>
                </mxCell>
                <mxCell id="GlmsrG5sMG7XwUcal3Ds-67" value="Mux&lt;br&gt;" style="verticalLabelPosition=middle;verticalAlign=middle;html=1;shape=trapezoid;perimeter=trapezoidPerimeter;whiteSpace=wrap;size=0.23;arcSize=10;flipV=1;labelPosition=center;align=center;fontSize=18;rotation=-90;fillColor=#330000;shadow=0;" parent="1" vertex="1">
                    <mxGeometry x="235" y="305" width="95" height="45" as="geometry"/>
                </mxCell>
                <mxCell id="GlmsrG5sMG7XwUcal3Ds-69" value="Mux&lt;br&gt;" style="verticalLabelPosition=middle;verticalAlign=middle;html=1;shape=trapezoid;perimeter=trapezoidPerimeter;whiteSpace=wrap;size=0.23;arcSize=10;flipV=1;labelPosition=center;align=center;fontSize=18;rotation=-90;fillColor=#330000;shadow=0;" parent="1" vertex="1">
                    <mxGeometry x="275" y="560" width="80" height="50" as="geometry"/>
                </mxCell>
                <mxCell id="GlmsrG5sMG7XwUcal3Ds-70" style="edgeStyle=orthogonalEdgeStyle;rounded=0;orthogonalLoop=1;jettySize=auto;html=1;strokeColor=#0000FF;fontSize=14;fillColor=#000000;shadow=0;strokeWidth=2;entryX=0.791;entryY=-0.053;entryDx=0;entryDy=0;entryPerimeter=0;" parent="1" target="GlmsrG5sMG7XwUcal3Ds-90" edge="1">
                    <mxGeometry relative="1" as="geometry">
                        <Array as="points">
                            <mxPoint x="250" y="170"/>
                        </Array>
                        <mxPoint x="550" y="170" as="targetPoint"/>
                        <mxPoint x="200" y="170" as="sourcePoint"/>
                    </mxGeometry>
                </mxCell>
                <mxCell id="GlmsrG5sMG7XwUcal3Ds-71" style="edgeStyle=orthogonalEdgeStyle;rounded=0;orthogonalLoop=1;jettySize=auto;html=1;exitX=0.791;exitY=1.007;exitDx=0;exitDy=0;entryX=1;entryY=0.5;entryDx=0;entryDy=0;shadow=0;strokeColor=#2C2CDE;fontSize=18;exitPerimeter=0;" parent="1" source="GlmsrG5sMG7XwUcal3Ds-90" target="GlmsrG5sMG7XwUcal3Ds-72" edge="1">
                    <mxGeometry relative="1" as="geometry">
                        <Array as="points">
                            <mxPoint x="794.91" y="170"/>
                        </Array>
                    </mxGeometry>
                </mxCell>
                <mxCell id="GlmsrG5sMG7XwUcal3Ds-72" value="Mux&lt;br&gt;" style="verticalLabelPosition=middle;verticalAlign=middle;html=1;shape=trapezoid;perimeter=trapezoidPerimeter;whiteSpace=wrap;size=0.23;arcSize=10;flipV=1;labelPosition=center;align=center;fontSize=18;rotation=-90;fillColor=#330000;movable=1;resizable=1;rotatable=1;deletable=1;editable=1;connectable=1;shadow=0;" parent="1" vertex="1">
                    <mxGeometry x="754.91" y="445" width="80" height="50" as="geometry"/>
                </mxCell>
                <mxCell id="GlmsrG5sMG7XwUcal3Ds-73" value="MemAddr[1:0]" style="text;html=1;align=center;verticalAlign=middle;resizable=0;points=[];autosize=1;strokeColor=none;fillColor=none;fontSize=14;shadow=0;" parent="1" vertex="1">
                    <mxGeometry x="214.99999999999997" y="255" width="100" height="20" as="geometry"/>
                </mxCell>
                <mxCell id="GlmsrG5sMG7XwUcal3Ds-74" value="WBsel [1:0]" style="text;html=1;align=center;verticalAlign=middle;resizable=1;points=[];autosize=1;strokeColor=none;fillColor=none;fontSize=14;movable=1;rotatable=1;deletable=1;editable=1;connectable=1;shadow=0;" parent="1" vertex="1">
                    <mxGeometry x="695" y="402.43" width="90" height="20" as="geometry"/>
                </mxCell>
                <mxCell id="GlmsrG5sMG7XwUcal3Ds-75" value="MemData&lt;br&gt;" style="text;html=1;align=center;verticalAlign=middle;resizable=0;points=[];autosize=1;strokeColor=none;fillColor=none;fontSize=14;shadow=0;" parent="1" vertex="1">
                    <mxGeometry x="234.76999999999998" y="510" width="80" height="30" as="geometry"/>
                </mxCell>
                <mxCell id="GlmsrG5sMG7XwUcal3Ds-76" value="RegWrite" style="text;html=1;align=center;verticalAlign=middle;resizable=0;points=[];autosize=1;strokeColor=none;fillColor=none;fontSize=14;shadow=0;" parent="1" vertex="1">
                    <mxGeometry x="-425.00000000000006" y="345" width="80" height="30" as="geometry"/>
                </mxCell>
                <mxCell id="GlmsrG5sMG7XwUcal3Ds-77" value="MemRead&lt;br&gt;" style="text;html=1;align=center;verticalAlign=middle;resizable=0;points=[];autosize=1;strokeColor=none;fillColor=none;fontSize=14;rotation=-90;shadow=0;" parent="1" vertex="1">
                    <mxGeometry x="335" y="220" width="90" height="30" as="geometry"/>
                </mxCell>
                <mxCell id="GlmsrG5sMG7XwUcal3Ds-78" value="MemWrite&lt;br&gt;" style="text;html=1;align=center;verticalAlign=middle;resizable=0;points=[];autosize=1;strokeColor=none;fillColor=none;fontSize=14;rotation=-90;shadow=0;" parent="1" vertex="1">
                    <mxGeometry x="420" y="225" width="90" height="30" as="geometry"/>
                </mxCell>
                <mxCell id="GlmsrG5sMG7XwUcal3Ds-79" style="edgeStyle=orthogonalEdgeStyle;rounded=0;orthogonalLoop=1;jettySize=auto;html=1;strokeColor=#0000FF;fontSize=14;fillColor=#000000;shadow=0;exitX=0.919;exitY=0.994;exitDx=0;exitDy=0;exitPerimeter=0;entryX=1;entryY=0.5;entryDx=0;entryDy=0;" parent="1" source="GlmsrG5sMG7XwUcal3Ds-105" edge="1" target="GlmsrG5sMG7XwUcal3Ds-28">
                    <mxGeometry relative="1" as="geometry">
                        <mxPoint x="-180" y="40" as="sourcePoint"/>
                        <mxPoint x="30" y="400" as="targetPoint"/>
                        <Array as="points">
                            <mxPoint x="30" y="39"/>
                        </Array>
                    </mxGeometry>
                </mxCell>
                <mxCell id="GlmsrG5sMG7XwUcal3Ds-82" value="ALU_OP" style="text;html=1;align=center;verticalAlign=middle;resizable=0;points=[];autosize=1;strokeColor=none;fillColor=none;fontSize=14;shadow=0;" parent="1" vertex="1">
                    <mxGeometry x="-5.090000000000028" y="365" width="70" height="20" as="geometry"/>
                </mxCell>
                <mxCell id="GlmsrG5sMG7XwUcal3Ds-83" style="edgeStyle=orthogonalEdgeStyle;rounded=0;orthogonalLoop=1;jettySize=auto;html=1;exitX=0.5;exitY=1;exitDx=0;exitDy=0;entryX=0.175;entryY=1.026;entryDx=0;entryDy=0;entryPerimeter=0;strokeColor=#FFFFFF;fontSize=14;fillColor=#000000;shadow=0;strokeWidth=3;" parent="1" source="GlmsrG5sMG7XwUcal3Ds-84" target="GlmsrG5sMG7XwUcal3Ds-28" edge="1">
                    <mxGeometry relative="1" as="geometry"/>
                </mxCell>
                <mxCell id="GlmsrG5sMG7XwUcal3Ds-84" value="Mux&lt;br&gt;" style="verticalLabelPosition=middle;verticalAlign=middle;html=1;shape=trapezoid;perimeter=trapezoidPerimeter;whiteSpace=wrap;size=0.23;arcSize=10;flipV=1;labelPosition=center;align=center;fontSize=18;rotation=-90;fillColor=#330000;shadow=0;" parent="1" vertex="1">
                    <mxGeometry x="-120" y="500" width="60" height="30" as="geometry"/>
                </mxCell>
                <mxCell id="GlmsrG5sMG7XwUcal3Ds-85" value="SHAMT" style="text;html=1;align=center;verticalAlign=middle;resizable=0;points=[];autosize=1;strokeColor=none;fillColor=none;fontSize=14;shadow=0;" parent="1" vertex="1">
                    <mxGeometry x="-120" y="560" width="60" height="20" as="geometry"/>
                </mxCell>
                <mxCell id="GlmsrG5sMG7XwUcal3Ds-87" value="&lt;b&gt;&lt;font style=&quot;font-size: 18px;&quot;&gt;HDU&lt;/font&gt;&lt;/b&gt;" style="rounded=1;whiteSpace=wrap;html=1;fillColor=#000000;shadow=0;" parent="1" vertex="1">
                    <mxGeometry x="-615.0899999999999" y="265" width="80" height="40" as="geometry"/>
                </mxCell>
                <mxCell id="GlmsrG5sMG7XwUcal3Ds-88" style="edgeStyle=orthogonalEdgeStyle;rounded=0;orthogonalLoop=1;jettySize=auto;html=1;exitX=0.21;exitY=1.046;exitDx=0;exitDy=0;shadow=0;strokeColor=#FFFFFF;fontSize=18;strokeWidth=3;entryX=0.117;entryY=1.009;entryDx=0;entryDy=0;exitPerimeter=0;entryPerimeter=0;" parent="1" source="GlmsrG5sMG7XwUcal3Ds-105" target="57" edge="1">
                    <mxGeometry relative="1" as="geometry">
                        <Array as="points">
                            <mxPoint x="-186" y="665"/>
                            <mxPoint x="-180" y="665"/>
                            <mxPoint x="-180" y="460"/>
                        </Array>
                        <mxPoint x="160" y="320" as="targetPoint"/>
                    </mxGeometry>
                </mxCell>
                <mxCell id="GlmsrG5sMG7XwUcal3Ds-89" value="SP" style="rounded=0;whiteSpace=wrap;html=1;fontSize=24;fillColor=#d80073;shadow=0;fontColor=#ffffff;strokeColor=#A50040;" parent="1" vertex="1">
                    <mxGeometry x="-390.09" y="650" width="45" height="30" as="geometry"/>
                </mxCell>
                <mxCell id="GlmsrG5sMG7XwUcal3Ds-90" value="" style="rounded=0;whiteSpace=wrap;html=1;fontSize=18;fillColor=#1A1A1A;rotation=-90;shadow=0;" parent="1" vertex="1">
                    <mxGeometry x="159.91" y="400" width="860" height="40" as="geometry"/>
                </mxCell>
                <mxCell id="GlmsrG5sMG7XwUcal3Ds-92" value="" style="rounded=0;whiteSpace=wrap;html=1;fontSize=18;fillColor=#1A1A1A;rotation=-90;shadow=0;" parent="1" vertex="1">
                    <mxGeometry x="-262.53" y="397.43" width="884.86" height="40" as="geometry"/>
                </mxCell>
                <mxCell id="GlmsrG5sMG7XwUcal3Ds-93" value="&lt;font style=&quot;font-size: 14px;&quot;&gt;WB&lt;/font&gt;" style="text;html=1;strokeColor=none;fillColor=none;align=center;verticalAlign=middle;whiteSpace=wrap;rounded=0;movable=1;resizable=1;rotatable=1;deletable=1;editable=1;connectable=1;shadow=0;" parent="1" vertex="1">
                    <mxGeometry x="145.0000000000001" y="155" width="60" height="30" as="geometry"/>
                </mxCell>
                <mxCell id="GlmsrG5sMG7XwUcal3Ds-96" value="&lt;font style=&quot;font-size: 14px;&quot;&gt;_____&lt;br&gt;&lt;br&gt;WB&lt;/font&gt;" style="text;html=1;strokeColor=none;fillColor=none;align=center;verticalAlign=middle;whiteSpace=wrap;rounded=0;movable=1;resizable=1;rotatable=1;deletable=1;editable=1;connectable=1;shadow=0;" parent="1" vertex="1">
                    <mxGeometry x="564.91" y="135" width="50" height="50" as="geometry"/>
                </mxCell>
                <mxCell id="GlmsrG5sMG7XwUcal3Ds-99" value="" style="endArrow=classic;html=1;rounded=0;shadow=0;strokeColor=#FFFFFF;fontSize=10;exitX=0.444;exitY=-0.026;exitDx=0;exitDy=0;exitPerimeter=0;strokeWidth=3;entryX=0.441;entryY=0.034;entryDx=0;entryDy=0;entryPerimeter=0;" parent="1" source="GlmsrG5sMG7XwUcal3Ds-28" edge="1" target="GlmsrG5sMG7XwUcal3Ds-92">
                    <mxGeometry width="50" height="50" relative="1" as="geometry">
                        <mxPoint x="100" y="520" as="sourcePoint"/>
                        <mxPoint x="130" y="470" as="targetPoint"/>
                    </mxGeometry>
                </mxCell>
                <mxCell id="GlmsrG5sMG7XwUcal3Ds-100" value="" style="endArrow=classic;html=1;rounded=0;shadow=0;strokeColor=#FFFFFF;fontSize=10;exitX=0.441;exitY=1.003;exitDx=0;exitDy=0;exitPerimeter=0;entryX=0.444;entryY=-0.07;entryDx=0;entryDy=0;entryPerimeter=0;strokeWidth=3;" parent="1" source="GlmsrG5sMG7XwUcal3Ds-92" target="GlmsrG5sMG7XwUcal3Ds-90" edge="1">
                    <mxGeometry width="50" height="50" relative="1" as="geometry">
                        <mxPoint x="319.9999999999998" y="469" as="sourcePoint"/>
                        <mxPoint x="560" y="469" as="targetPoint"/>
                    </mxGeometry>
                </mxCell>
                <mxCell id="GlmsrG5sMG7XwUcal3Ds-101" value="" style="endArrow=classic;html=1;rounded=0;shadow=0;strokeColor=#FFFFFF;fontSize=10;exitX=0.442;exitY=0.996;exitDx=0;exitDy=0;exitPerimeter=0;entryX=0.5;entryY=0;entryDx=0;entryDy=0;strokeWidth=3;" parent="1" source="GlmsrG5sMG7XwUcal3Ds-90" target="GlmsrG5sMG7XwUcal3Ds-72" edge="1">
                    <mxGeometry width="50" height="50" relative="1" as="geometry">
                        <mxPoint x="614.91" y="469.99" as="sourcePoint"/>
                        <mxPoint x="764.91" y="470" as="targetPoint"/>
                    </mxGeometry>
                </mxCell>
                <mxCell id="GlmsrG5sMG7XwUcal3Ds-102" value="" style="endArrow=classic;html=1;rounded=0;shadow=0;strokeColor=#FFFFFF;fontSize=10;entryX=0.08;entryY=-0.025;entryDx=0;entryDy=0;entryPerimeter=0;strokeWidth=3;" parent="1" target="GlmsrG5sMG7XwUcal3Ds-90" edge="1">
                    <mxGeometry width="50" height="50" relative="1" as="geometry">
                        <mxPoint x="200" y="780" as="sourcePoint"/>
                        <mxPoint x="407.99000000000024" y="780" as="targetPoint"/>
                    </mxGeometry>
                </mxCell>
                <mxCell id="GlmsrG5sMG7XwUcal3Ds-103" value="" style="edgeStyle=segmentEdgeStyle;endArrow=classic;html=1;rounded=0;shadow=0;strokeColor=#FFFFFF;fontSize=10;fillColor=none;entryX=0.25;entryY=0;entryDx=0;entryDy=0;exitX=0.081;exitY=1.006;exitDx=0;exitDy=0;exitPerimeter=0;strokeWidth=3;" parent="1" source="GlmsrG5sMG7XwUcal3Ds-90" target="GlmsrG5sMG7XwUcal3Ds-72" edge="1">
                    <mxGeometry width="50" height="50" relative="1" as="geometry">
                        <mxPoint x="614.91" y="780" as="sourcePoint"/>
                        <mxPoint x="714.91" y="660" as="targetPoint"/>
                        <Array as="points">
                            <mxPoint x="704.91" y="780"/>
                            <mxPoint x="704.91" y="490"/>
                        </Array>
                    </mxGeometry>
                </mxCell>
                <mxCell id="GlmsrG5sMG7XwUcal3Ds-105" value="" style="rounded=0;whiteSpace=wrap;html=1;fontSize=18;fillColor=#1A1A1A;rotation=-90;shadow=0;" parent="1" vertex="1">
                    <mxGeometry x="-650.0899999999999" y="390" width="884.86" height="40" as="geometry"/>
                </mxCell>
                <mxCell id="GlmsrG5sMG7XwUcal3Ds-107" value="" style="edgeStyle=segmentEdgeStyle;endArrow=classic;html=1;rounded=0;shadow=0;strokeColor=#FFFFFF;fontSize=10;fillColor=none;entryX=0.466;entryY=-0.012;entryDx=0;entryDy=0;entryPerimeter=0;exitX=1;exitY=0.25;exitDx=0;exitDy=0;strokeWidth=3;" parent="1" source="GlmsrG5sMG7XwUcal3Ds-24" target="GlmsrG5sMG7XwUcal3Ds-105" edge="1">
                    <mxGeometry width="50" height="50" relative="1" as="geometry">
                        <mxPoint x="-250" y="390" as="sourcePoint"/>
                        <mxPoint x="-230" y="450" as="targetPoint"/>
                        <Array as="points">
                            <mxPoint x="-250" y="440"/>
                            <mxPoint x="-250" y="440"/>
                        </Array>
                    </mxGeometry>
                </mxCell>
                <mxCell id="GlmsrG5sMG7XwUcal3Ds-109" value="" style="edgeStyle=segmentEdgeStyle;endArrow=classic;html=1;rounded=0;shadow=0;strokeColor=#3333FF;fontSize=10;fillColor=none;entryX=0.836;entryY=-0.023;entryDx=0;entryDy=0;entryPerimeter=0;strokeWidth=3;exitX=0.827;exitY=1.006;exitDx=0;exitDy=0;exitPerimeter=0;" parent="1" target="GlmsrG5sMG7XwUcal3Ds-92" edge="1" source="GlmsrG5sMG7XwUcal3Ds-105">
                    <mxGeometry width="50" height="50" relative="1" as="geometry">
                        <mxPoint x="-180" y="120" as="sourcePoint"/>
                        <mxPoint x="-110" y="120" as="targetPoint"/>
                        <Array as="points"/>
                    </mxGeometry>
                </mxCell>
                <mxCell id="GlmsrG5sMG7XwUcal3Ds-110" value="" style="edgeStyle=segmentEdgeStyle;endArrow=classic;html=1;rounded=0;shadow=0;strokeColor=#3333FF;fontSize=10;fillColor=none;exitX=0.773;exitY=1.002;exitDx=0;exitDy=0;exitPerimeter=0;strokeWidth=2;entryX=0.781;entryY=0.002;entryDx=0;entryDy=0;entryPerimeter=0;" parent="1" source="GlmsrG5sMG7XwUcal3Ds-105" edge="1" target="GlmsrG5sMG7XwUcal3Ds-92">
                    <mxGeometry width="50" height="50" relative="1" as="geometry">
                        <mxPoint x="82.17" y="169.56000000000023" as="sourcePoint"/>
                        <mxPoint x="140" y="169" as="targetPoint"/>
                        <Array as="points"/>
                    </mxGeometry>
                </mxCell>
                <mxCell id="GlmsrG5sMG7XwUcal3Ds-111" value="" style="edgeStyle=segmentEdgeStyle;endArrow=classic;html=1;rounded=0;shadow=0;strokeColor=#3333FF;fontSize=10;fillColor=none;exitX=0.984;exitY=0.656;exitDx=0;exitDy=0;exitPerimeter=0;strokeWidth=2;entryX=0.771;entryY=-0.058;entryDx=0;entryDy=0;entryPerimeter=0;" parent="1" source="GlmsrG5sMG7XwUcal3Ds-48" edge="1" target="GlmsrG5sMG7XwUcal3Ds-105">
                    <mxGeometry width="50" height="50" relative="1" as="geometry">
                        <mxPoint x="-310" y="169.56000000000023" as="sourcePoint"/>
                        <mxPoint x="-240" y="170" as="targetPoint"/>
                        <Array as="points">
                            <mxPoint x="-390" y="-111"/>
                            <mxPoint x="-390" y="170"/>
                        </Array>
                    </mxGeometry>
                </mxCell>
                <mxCell id="GlmsrG5sMG7XwUcal3Ds-115" value="" style="edgeStyle=segmentEdgeStyle;endArrow=classic;html=1;rounded=0;shadow=0;strokeColor=#FFFFFF;fontSize=10;fillColor=none;strokeWidth=3;exitX=0.086;exitY=1.022;exitDx=0;exitDy=0;exitPerimeter=0;entryX=0.095;entryY=-0.068;entryDx=0;entryDy=0;entryPerimeter=0;" parent="1" edge="1" target="GlmsrG5sMG7XwUcal3Ds-92" source="GlmsrG5sMG7XwUcal3Ds-105">
                    <mxGeometry width="50" height="50" relative="1" as="geometry">
                        <mxPoint x="-90" y="800" as="sourcePoint"/>
                        <mxPoint x="-50" y="780" as="targetPoint"/>
                        <Array as="points"/>
                    </mxGeometry>
                </mxCell>
                <mxCell id="GlmsrG5sMG7XwUcal3Ds-116" style="edgeStyle=orthogonalEdgeStyle;rounded=0;orthogonalLoop=1;jettySize=auto;html=1;shadow=0;strokeColor=#2C2CDE;fontSize=18;entryX=0.5;entryY=0;entryDx=0;entryDy=0;strokeWidth=2;exitX=0.802;exitY=0.971;exitDx=0;exitDy=0;exitPerimeter=0;" parent="1" target="GlmsrG5sMG7XwUcal3Ds-24" edge="1" source="GlmsrG5sMG7XwUcal3Ds-90">
                    <mxGeometry relative="1" as="geometry">
                        <Array as="points">
                            <mxPoint x="630" y="160"/>
                            <mxPoint x="630" y="-100"/>
                            <mxPoint x="-330" y="-100"/>
                        </Array>
                        <mxPoint x="630" y="160" as="sourcePoint"/>
                        <mxPoint x="-310" y="370" as="targetPoint"/>
                    </mxGeometry>
                </mxCell>
                <mxCell id="GlmsrG5sMG7XwUcal3Ds-119" value="____&lt;br&gt;&lt;br&gt;MEM&lt;br&gt;____" style="text;html=1;align=center;verticalAlign=middle;resizable=0;points=[];autosize=1;strokeColor=none;fillColor=none;fontSize=18;shadow=0;" parent="1" vertex="1">
                    <mxGeometry x="-242.65999999999997" y="55" width="70" height="100" as="geometry"/>
                </mxCell>
                <mxCell id="GlmsrG5sMG7XwUcal3Ds-120" value="____&lt;br&gt;&lt;br&gt;MEM&lt;br&gt;____" style="text;html=1;align=center;verticalAlign=middle;resizable=0;points=[];autosize=1;strokeColor=none;fillColor=none;fontSize=18;shadow=0;" parent="1" vertex="1">
                    <mxGeometry x="145.00000000000003" y="55" width="70" height="100" as="geometry"/>
                </mxCell>
                <mxCell id="GlmsrG5sMG7XwUcal3Ds-129" style="edgeStyle=orthogonalEdgeStyle;rounded=0;orthogonalLoop=1;jettySize=auto;html=1;fontSize=18;shadow=0;strokeColor=#3333FF;exitX=0.82;exitY=1.007;exitDx=0;exitDy=0;exitPerimeter=0;entryX=0.209;entryY=0.006;entryDx=0;entryDy=0;entryPerimeter=0;" parent="1" edge="1" target="GlmsrG5sMG7XwUcal3Ds-27" source="GlmsrG5sMG7XwUcal3Ds-92">
                    <mxGeometry relative="1" as="geometry">
                        <mxPoint x="210" y="134" as="sourcePoint"/>
                        <mxPoint x="360" y="260" as="targetPoint"/>
                        <Array as="points">
                            <mxPoint x="400" y="134"/>
                        </Array>
                    </mxGeometry>
                </mxCell>
                <mxCell id="WDpgufmApOgBnWALHM8Q-4" style="edgeStyle=orthogonalEdgeStyle;rounded=0;orthogonalLoop=1;jettySize=auto;html=1;fontSize=18;shadow=0;strokeWidth=3;entryX=0;entryY=0.843;entryDx=0;entryDy=0;entryPerimeter=0;" parent="1" source="GlmsrG5sMG7XwUcal3Ds-69" edge="1" target="GlmsrG5sMG7XwUcal3Ds-27">
                    <mxGeometry relative="1" as="geometry">
                        <mxPoint x="345.09000000000003" y="576" as="sourcePoint"/>
                        <mxPoint x="350" y="370" as="targetPoint"/>
                        <Array as="points">
                            <mxPoint x="360" y="576"/>
                            <mxPoint x="360" y="386"/>
                        </Array>
                    </mxGeometry>
                </mxCell>
                <mxCell id="WDpgufmApOgBnWALHM8Q-13" value="&lt;span style=&quot;font-size: 14px;&quot;&gt;RD&lt;/span&gt;" style="text;html=1;align=center;verticalAlign=middle;resizable=0;points=[];autosize=1;strokeColor=none;fillColor=none;fontSize=24;shadow=0;" parent="1" vertex="1">
                    <mxGeometry x="455" y="335" width="40" height="40" as="geometry"/>
                </mxCell>
                <mxCell id="WDpgufmApOgBnWALHM8Q-19" style="edgeStyle=orthogonalEdgeStyle;rounded=0;orthogonalLoop=1;jettySize=auto;html=1;strokeColor=#0000FF;fontSize=14;fillColor=#000000;shadow=0;exitX=0.871;exitY=1.01;exitDx=0;exitDy=0;exitPerimeter=0;entryX=1;entryY=0.5;entryDx=0;entryDy=0;" parent="1" source="GlmsrG5sMG7XwUcal3Ds-92" target="GlmsrG5sMG7XwUcal3Ds-69" edge="1">
                    <mxGeometry relative="1" as="geometry">
                        <Array as="points">
                            <mxPoint x="315" y="89"/>
                        </Array>
                        <mxPoint x="220" y="90" as="sourcePoint"/>
                        <mxPoint x="315" y="540" as="targetPoint"/>
                    </mxGeometry>
                </mxCell>
                <mxCell id="WDpgufmApOgBnWALHM8Q-21" value="____&lt;br&gt;&lt;br&gt;EX&lt;br&gt;____" style="text;html=1;align=center;verticalAlign=middle;resizable=0;points=[];autosize=1;strokeColor=none;fillColor=none;fontSize=18;shadow=0;" parent="1" vertex="1">
                    <mxGeometry x="-237.6599999999999" y="-10" width="60" height="100" as="geometry"/>
                </mxCell>
                <mxCell id="WDpgufmApOgBnWALHM8Q-25" style="edgeStyle=orthogonalEdgeStyle;rounded=0;orthogonalLoop=1;jettySize=auto;html=1;strokeColor=#0000FF;fontSize=14;fillColor=#000000;shadow=0;exitX=0.909;exitY=0.997;exitDx=0;exitDy=0;exitPerimeter=0;entryX=1;entryY=0.25;entryDx=0;entryDy=0;" parent="1" edge="1" target="GlmsrG5sMG7XwUcal3Ds-84" source="GlmsrG5sMG7XwUcal3Ds-105">
                    <mxGeometry relative="1" as="geometry">
                        <mxPoint x="-180" y="49" as="sourcePoint"/>
                        <mxPoint x="-90" y="480" as="targetPoint"/>
                        <Array as="points">
                            <mxPoint x="-91" y="48"/>
                        </Array>
                    </mxGeometry>
                </mxCell>
                <mxCell id="WDpgufmApOgBnWALHM8Q-33" value="WB" style="text;html=1;align=center;verticalAlign=middle;resizable=0;points=[];autosize=1;strokeColor=none;fillColor=none;fontSize=18;shadow=0;" parent="1" vertex="1">
                    <mxGeometry x="-232.65999999999997" y="145" width="50" height="40" as="geometry"/>
                </mxCell>
                <mxCell id="WDpgufmApOgBnWALHM8Q-29" value="" style="rounded=0;whiteSpace=wrap;html=1;fontSize=18;fillColor=#1A1A1A;rotation=-90;shadow=0;" parent="1" vertex="1">
                    <mxGeometry x="-909.9999999999998" y="390" width="884.86" height="40" as="geometry"/>
                </mxCell>
                <mxCell id="WDpgufmApOgBnWALHM8Q-35" style="edgeStyle=orthogonalEdgeStyle;rounded=0;orthogonalLoop=1;jettySize=auto;html=1;strokeColor=#0000FF;fontSize=14;fillColor=#000000;shadow=0;exitX=1;exitY=0.5;exitDx=0;exitDy=0;strokeWidth=2;entryX=0.919;entryY=0.006;entryDx=0;entryDy=0;entryPerimeter=0;" parent="1" source="GlmsrG5sMG7XwUcal3Ds-48" edge="1" target="GlmsrG5sMG7XwUcal3Ds-105">
                    <mxGeometry relative="1" as="geometry">
                        <Array as="points">
                            <mxPoint x="-350" y="-120"/>
                            <mxPoint x="-350" y="39"/>
                        </Array>
                        <mxPoint x="-529.9900000000002" y="249.98000000000002" as="sourcePoint"/>
                        <mxPoint x="-240" y="40" as="targetPoint"/>
                    </mxGeometry>
                </mxCell>
                <mxCell id="WDpgufmApOgBnWALHM8Q-36" value="" style="edgeStyle=segmentEdgeStyle;endArrow=classic;html=1;rounded=0;shadow=0;strokeColor=#3333FF;fontSize=10;fillColor=none;strokeWidth=3;entryX=0.828;entryY=-0.058;entryDx=0;entryDy=0;entryPerimeter=0;" parent="1" source="GlmsrG5sMG7XwUcal3Ds-48" edge="1" target="GlmsrG5sMG7XwUcal3Ds-105">
                    <mxGeometry width="50" height="50" relative="1" as="geometry">
                        <mxPoint x="-450.09000000000043" y="120" as="sourcePoint"/>
                        <mxPoint x="-240" y="120" as="targetPoint"/>
                        <Array as="points">
                            <mxPoint x="-420" y="120"/>
                        </Array>
                    </mxGeometry>
                </mxCell>
                <mxCell id="WDpgufmApOgBnWALHM8Q-38" value="" style="edgeStyle=segmentEdgeStyle;endArrow=classic;html=1;rounded=0;shadow=0;strokeColor=#3333FF;fontSize=10;fillColor=none;exitX=0.836;exitY=1.008;exitDx=0;exitDy=0;exitPerimeter=0;entryX=0.589;entryY=0.006;entryDx=0;entryDy=0;entryPerimeter=0;" parent="1" source="GlmsrG5sMG7XwUcal3Ds-92" target="GlmsrG5sMG7XwUcal3Ds-27" edge="1">
                    <mxGeometry width="50" height="50" relative="1" as="geometry">
                        <mxPoint x="244.99999999999955" y="120" as="sourcePoint"/>
                        <mxPoint x="445" y="120" as="targetPoint"/>
                        <Array as="points">
                            <mxPoint x="220" y="120"/>
                            <mxPoint x="406" y="120"/>
                        </Array>
                    </mxGeometry>
                </mxCell>
                <mxCell id="WDpgufmApOgBnWALHM8Q-48" style="edgeStyle=orthogonalEdgeStyle;rounded=0;orthogonalLoop=1;jettySize=auto;html=1;exitX=0;exitY=0.5;exitDx=0;exitDy=0;entryX=0.375;entryY=1.002;entryDx=0;entryDy=0;strokeColor=#FFFFFF;fontSize=14;fillColor=#000000;shadow=0;entryPerimeter=0;strokeWidth=3;" parent="1" source="GlmsrG5sMG7XwUcal3Ds-54" target="GlmsrG5sMG7XwUcal3Ds-61" edge="1">
                    <mxGeometry relative="1" as="geometry">
                        <mxPoint x="-650.0900000000001" y="340" as="sourcePoint"/>
                        <mxPoint x="-660.0900000000001" y="210" as="targetPoint"/>
                    </mxGeometry>
                </mxCell>
                <mxCell id="WDpgufmApOgBnWALHM8Q-49" style="edgeStyle=orthogonalEdgeStyle;rounded=0;orthogonalLoop=1;jettySize=auto;html=1;shadow=0;strokeColor=#FFFFFF;fontSize=10;fillColor=none;strokeWidth=3;entryX=0.24;entryY=0.006;entryDx=0;entryDy=0;entryPerimeter=0;exitX=0.241;exitY=1.002;exitDx=0;exitDy=0;exitPerimeter=0;" parent="1" edge="1" target="GlmsrG5sMG7XwUcal3Ds-105" source="WDpgufmApOgBnWALHM8Q-29">
                    <mxGeometry relative="1" as="geometry">
                        <Array as="points"/>
                        <mxPoint x="-440" y="640" as="sourcePoint"/>
                        <mxPoint x="-230" y="640" as="targetPoint"/>
                    </mxGeometry>
                </mxCell>
                <mxCell id="WDpgufmApOgBnWALHM8Q-50" style="edgeStyle=orthogonalEdgeStyle;rounded=0;orthogonalLoop=1;jettySize=auto;html=1;shadow=0;strokeColor=#FFFFFF;fontSize=10;fillColor=none;strokeWidth=3;exitX=0.24;exitY=1.006;exitDx=0;exitDy=0;exitPerimeter=0;" parent="1" edge="1" source="GlmsrG5sMG7XwUcal3Ds-105">
                    <mxGeometry relative="1" as="geometry">
                        <Array as="points">
                            <mxPoint x="-130" y="640"/>
                            <mxPoint x="-130" y="540"/>
                        </Array>
                        <mxPoint x="-160" y="640" as="sourcePoint"/>
                        <mxPoint x="-105" y="540" as="targetPoint"/>
                    </mxGeometry>
                </mxCell>
                <mxCell id="WDpgufmApOgBnWALHM8Q-51" style="edgeStyle=orthogonalEdgeStyle;rounded=0;orthogonalLoop=1;jettySize=auto;html=1;shadow=0;strokeColor=#FFFFFF;fontSize=10;fillColor=none;entryX=0.24;entryY=-0.007;entryDx=0;entryDy=0;entryPerimeter=0;strokeWidth=3;" parent="1" target="WDpgufmApOgBnWALHM8Q-29" edge="1">
                    <mxGeometry relative="1" as="geometry">
                        <Array as="points">
                            <mxPoint x="-500" y="640"/>
                            <mxPoint x="-500" y="640"/>
                        </Array>
                        <mxPoint x="-620" y="510" as="sourcePoint"/>
                        <mxPoint x="-490" y="640" as="targetPoint"/>
                    </mxGeometry>
                </mxCell>
                <mxCell id="WDpgufmApOgBnWALHM8Q-53" value="&lt;font style=&quot;font-size: 14px;&quot;&gt;Rsrc&lt;/font&gt;" style="text;html=1;align=center;verticalAlign=middle;resizable=0;points=[];autosize=1;strokeColor=none;fillColor=none;fontSize=24;shadow=0;" parent="1" vertex="1">
                    <mxGeometry x="-390.09000000000003" y="415" width="50" height="40" as="geometry"/>
                </mxCell>
                <mxCell id="WDpgufmApOgBnWALHM8Q-54" style="edgeStyle=orthogonalEdgeStyle;rounded=0;orthogonalLoop=1;jettySize=auto;html=1;fontSize=24;shadow=0;exitX=0.387;exitY=1.006;exitDx=0;exitDy=0;exitPerimeter=0;strokeWidth=3;entryX=-0.009;entryY=0.522;entryDx=0;entryDy=0;entryPerimeter=0;" parent="1" source="WDpgufmApOgBnWALHM8Q-29" edge="1" target="GlmsrG5sMG7XwUcal3Ds-24">
                    <mxGeometry relative="1" as="geometry">
                        <mxPoint x="-437.6899999999998" y="510.0852400000001" as="sourcePoint"/>
                        <Array as="points"/>
                        <mxPoint x="-400" y="510" as="targetPoint"/>
                    </mxGeometry>
                </mxCell>
                <mxCell id="WDpgufmApOgBnWALHM8Q-55" value="&lt;font style=&quot;font-size: 14px;&quot;&gt;Rdst&lt;/font&gt;" style="text;html=1;align=center;verticalAlign=middle;resizable=0;points=[];autosize=1;strokeColor=none;fillColor=none;fontSize=24;shadow=0;" parent="1" vertex="1">
                    <mxGeometry x="-390.09000000000003" y="485" width="50" height="40" as="geometry"/>
                </mxCell>
                <mxCell id="WDpgufmApOgBnWALHM8Q-57" style="edgeStyle=orthogonalEdgeStyle;rounded=0;orthogonalLoop=1;jettySize=auto;html=1;fontSize=14;shadow=0;entryX=0.387;entryY=-0.002;entryDx=0;entryDy=0;entryPerimeter=0;strokeWidth=3;exitX=0.994;exitY=0.518;exitDx=0;exitDy=0;exitPerimeter=0;" parent="1" target="GlmsrG5sMG7XwUcal3Ds-105" edge="1" source="GlmsrG5sMG7XwUcal3Ds-24">
                    <mxGeometry relative="1" as="geometry">
                        <mxPoint x="-240" y="510" as="targetPoint"/>
                        <Array as="points">
                            <mxPoint x="-250" y="510"/>
                        </Array>
                        <mxPoint x="-250" y="490" as="sourcePoint"/>
                    </mxGeometry>
                </mxCell>
                <mxCell id="WDpgufmApOgBnWALHM8Q-58" style="edgeStyle=orthogonalEdgeStyle;rounded=0;orthogonalLoop=1;jettySize=auto;html=1;fontSize=24;shadow=0;entryX=0.387;entryY=0.013;entryDx=0;entryDy=0;entryPerimeter=0;strokeWidth=3;" parent="1" target="WDpgufmApOgBnWALHM8Q-29" edge="1">
                    <mxGeometry relative="1" as="geometry">
                        <mxPoint x="-620" y="440" as="sourcePoint"/>
                        <Array as="points">
                            <mxPoint x="-620" y="510"/>
                        </Array>
                        <mxPoint x="-490" y="510" as="targetPoint"/>
                    </mxGeometry>
                </mxCell>
                <mxCell id="WDpgufmApOgBnWALHM8Q-59" value="&lt;font style=&quot;font-size: 14px&quot;&gt;Instr[9:7]&lt;/font&gt;" style="text;html=1;align=center;verticalAlign=middle;resizable=0;points=[];autosize=1;strokeColor=none;fillColor=none;fontSize=24;shadow=0;strokeWidth=5;" parent="1" vertex="1">
                    <mxGeometry x="-590.09" y="400" width="70" height="40" as="geometry"/>
                </mxCell>
                <mxCell id="4" value="" style="edgeStyle=segmentEdgeStyle;endArrow=classic;html=1;rounded=0;shadow=0;strokeColor=#FFFFFF;fontSize=10;fillColor=none;strokeWidth=3;entryX=0.809;entryY=1;entryDx=0;entryDy=0;entryPerimeter=0;exitX=0.339;exitY=0.996;exitDx=0;exitDy=0;exitPerimeter=0;" parent="1" edge="1" target="GlmsrG5sMG7XwUcal3Ds-69" source="GlmsrG5sMG7XwUcal3Ds-92">
                    <mxGeometry width="50" height="50" relative="1" as="geometry">
                        <mxPoint x="210" y="560" as="sourcePoint"/>
                        <mxPoint x="254.9100000000002" y="560.29" as="targetPoint"/>
                        <Array as="points">
                            <mxPoint x="225" y="560"/>
                        </Array>
                    </mxGeometry>
                </mxCell>
                <mxCell id="5" value="" style="edgeStyle=segmentEdgeStyle;endArrow=classic;html=1;rounded=0;shadow=0;strokeColor=#FFFFFF;fontSize=10;fillColor=none;strokeWidth=3;exitX=0.293;exitY=0.99;exitDx=0;exitDy=0;exitPerimeter=0;entryX=0.306;entryY=1.04;entryDx=0;entryDy=0;entryPerimeter=0;" parent="1" edge="1" target="GlmsrG5sMG7XwUcal3Ds-69" source="GlmsrG5sMG7XwUcal3Ds-92">
                    <mxGeometry width="50" height="50" relative="1" as="geometry">
                        <mxPoint x="225" y="600" as="sourcePoint"/>
                        <mxPoint x="254.9100000000003" y="600.29" as="targetPoint"/>
                        <Array as="points"/>
                    </mxGeometry>
                </mxCell>
                <mxCell id="8" value="" style="edgeStyle=segmentEdgeStyle;endArrow=classic;html=1;rounded=0;shadow=0;strokeColor=#FFFFFF;fontSize=10;fillColor=none;strokeWidth=3;entryX=0.89;entryY=1.049;entryDx=0;entryDy=0;entryPerimeter=0;" parent="1" edge="1" target="GlmsrG5sMG7XwUcal3Ds-67">
                    <mxGeometry width="50" height="50" relative="1" as="geometry">
                        <mxPoint x="210" y="560" as="sourcePoint"/>
                        <mxPoint x="250" y="291" as="targetPoint"/>
                        <Array as="points">
                            <mxPoint x="210" y="291"/>
                        </Array>
                    </mxGeometry>
                </mxCell>
                <mxCell id="10" value="" style="edgeStyle=segmentEdgeStyle;endArrow=classic;html=1;rounded=0;shadow=0;strokeColor=#FFFFFF;fontSize=10;fillColor=none;strokeWidth=3;entryX=0.581;entryY=0.002;entryDx=0;entryDy=0;entryPerimeter=0;exitX=1.003;exitY=0.542;exitDx=0;exitDy=0;exitPerimeter=0;" parent="1" edge="1" target="GlmsrG5sMG7XwUcal3Ds-90" source="GlmsrG5sMG7XwUcal3Ds-27">
                    <mxGeometry width="50" height="50" relative="1" as="geometry">
                        <mxPoint x="500" y="350" as="sourcePoint"/>
                        <mxPoint x="560" y="350" as="targetPoint"/>
                        <Array as="points">
                            <mxPoint x="532" y="350"/>
                        </Array>
                    </mxGeometry>
                </mxCell>
                <mxCell id="11" value="&lt;b&gt;&lt;font style=&quot;font-size: 18px&quot;&gt;M / W&lt;/font&gt;&lt;/b&gt;" style="text;html=1;align=center;verticalAlign=middle;resizable=0;points=[];autosize=1;strokeColor=none;fillColor=none;rotation=-90;" parent="1" vertex="1">
                    <mxGeometry x="559.91" y="320" width="60" height="20" as="geometry"/>
                </mxCell>
                <mxCell id="12" value="&lt;b&gt;E / M&lt;/b&gt;" style="text;html=1;align=center;verticalAlign=middle;resizable=0;points=[];autosize=1;strokeColor=none;fillColor=none;fontSize=18;rotation=-90;" parent="1" vertex="1">
                    <mxGeometry x="149.9" y="495" width="60" height="30" as="geometry"/>
                </mxCell>
                <mxCell id="14" value="&lt;font style=&quot;font-size: 14px&quot;&gt;Instr[3:0]&lt;/font&gt;" style="text;html=1;align=center;verticalAlign=middle;resizable=0;points=[];autosize=1;strokeColor=none;fillColor=none;fontSize=24;shadow=0;" parent="1" vertex="1">
                    <mxGeometry x="-707.59" y="620" width="70" height="40" as="geometry"/>
                </mxCell>
                <mxCell id="15" value="&lt;b&gt;D / E&lt;/b&gt;" style="text;html=1;align=center;verticalAlign=middle;resizable=0;points=[];autosize=1;strokeColor=none;fillColor=none;fontSize=18;rotation=-89;" parent="1" vertex="1">
                    <mxGeometry x="-237.66" y="495" width="60" height="30" as="geometry"/>
                </mxCell>
                <mxCell id="16" value="&lt;b&gt;F / D&lt;/b&gt;" style="text;html=1;align=center;verticalAlign=middle;resizable=0;points=[];autosize=1;strokeColor=none;fillColor=none;fontSize=18;rotation=-90;" parent="1" vertex="1">
                    <mxGeometry x="-492.57" y="500" width="50" height="30" as="geometry"/>
                </mxCell>
                <mxCell id="18" value="Branch" style="rounded=0;whiteSpace=wrap;html=1;fontSize=24;fillColor=#60a917;shadow=0;fontColor=#ffffff;strokeColor=#2D7600;" parent="1" vertex="1">
                    <mxGeometry x="30" y="-170" width="97.5" height="35" as="geometry"/>
                </mxCell>
                <mxCell id="19" style="edgeStyle=orthogonalEdgeStyle;html=1;strokeWidth=2;strokeColor=#FF0000;entryX=0.615;entryY=1;entryDx=0;entryDy=0;entryPerimeter=0;exitX=0.357;exitY=-0.002;exitDx=0;exitDy=0;exitPerimeter=0;" parent="1" target="18" edge="1" source="GlmsrG5sMG7XwUcal3Ds-64">
                    <mxGeometry relative="1" as="geometry">
                        <mxPoint x="117" y="410" as="sourcePoint"/>
                        <mxPoint x="90" y="-120" as="targetPoint"/>
                        <Array as="points">
                            <mxPoint x="108" y="400"/>
                            <mxPoint x="90" y="400"/>
                        </Array>
                    </mxGeometry>
                </mxCell>
                <mxCell id="22" value="" style="edgeStyle=segmentEdgeStyle;endArrow=classic;html=1;rounded=0;shadow=0;strokeColor=#3333FF;fontSize=10;fillColor=none;entryX=0;entryY=0.5;entryDx=0;entryDy=0;strokeWidth=1;exitX=0.892;exitY=1.012;exitDx=0;exitDy=0;exitPerimeter=0;" parent="1" target="18" edge="1" source="GlmsrG5sMG7XwUcal3Ds-105">
                    <mxGeometry width="50" height="50" relative="1" as="geometry">
                        <mxPoint x="-150" y="70" as="sourcePoint"/>
                        <mxPoint x="380" y="50" as="targetPoint"/>
                        <Array as="points">
                            <mxPoint x="-120" y="63"/>
                            <mxPoint x="-120" y="-153"/>
                        </Array>
                    </mxGeometry>
                </mxCell>
                <mxCell id="26" value="&lt;font style=&quot;font-size: 14px&quot;&gt;Instr[15:10]&lt;/font&gt;" style="text;html=1;align=center;verticalAlign=middle;resizable=0;points=[];autosize=1;strokeColor=none;fillColor=none;fontSize=24;shadow=0;strokeWidth=5;" parent="1" vertex="1">
                    <mxGeometry x="-620.09" y="365" width="90" height="40" as="geometry"/>
                </mxCell>
                <mxCell id="28" style="edgeStyle=orthogonalEdgeStyle;html=1;strokeWidth=3;exitX=0.58;exitY=1.014;exitDx=0;exitDy=0;exitPerimeter=0;" parent="1" source="WDpgufmApOgBnWALHM8Q-29" target="GlmsrG5sMG7XwUcal3Ds-48" edge="1">
                    <mxGeometry relative="1" as="geometry">
                        <mxPoint x="-300.09000000000003" y="280" as="targetPoint"/>
                        <mxPoint x="-440" y="340" as="sourcePoint"/>
                        <Array as="points">
                            <mxPoint x="-360" y="339"/>
                            <mxPoint x="-360" y="280"/>
                            <mxPoint x="-440" y="280"/>
                        </Array>
                    </mxGeometry>
                </mxCell>
                <mxCell id="35" value="" style="edgeStyle=segmentEdgeStyle;endArrow=classic;html=1;rounded=0;shadow=0;strokeColor=#FFFFFF;fontSize=10;fillColor=none;strokeWidth=3;endFill=1;startArrow=none;startFill=0;entryX=0.645;entryY=1.025;entryDx=0;entryDy=0;entryPerimeter=0;" edge="1" parent="1" target="GlmsrG5sMG7XwUcal3Ds-67">
                    <mxGeometry width="50" height="50" relative="1" as="geometry">
                        <mxPoint x="230" y="600" as="sourcePoint"/>
                        <mxPoint x="240" y="339" as="targetPoint"/>
                        <Array as="points">
                            <mxPoint x="220" y="600"/>
                            <mxPoint x="220" y="314"/>
                        </Array>
                    </mxGeometry>
                </mxCell>
                <mxCell id="40" style="edgeStyle=orthogonalEdgeStyle;rounded=0;orthogonalLoop=1;jettySize=auto;html=1;strokeColor=#0000FF;fontSize=14;fillColor=#000000;shadow=0;exitX=0.938;exitY=1.018;exitDx=0;exitDy=0;exitPerimeter=0;entryX=0.54;entryY=0.009;entryDx=0;entryDy=0;entryPerimeter=0;" edge="1" parent="1" source="GlmsrG5sMG7XwUcal3Ds-105" target="GlmsrG5sMG7XwUcal3Ds-64">
                    <mxGeometry relative="1" as="geometry">
                        <mxPoint x="-177.89999999999964" y="49.24366000000032" as="sourcePoint"/>
                        <mxPoint x="130" y="390" as="targetPoint"/>
                        <Array as="points">
                            <mxPoint x="117" y="22"/>
                        </Array>
                    </mxGeometry>
                </mxCell>
                <mxCell id="41" style="edgeStyle=orthogonalEdgeStyle;rounded=0;orthogonalLoop=1;jettySize=auto;html=1;strokeColor=#0000FF;fontSize=14;fillColor=#000000;shadow=0;exitX=0.926;exitY=0.973;exitDx=0;exitDy=0;exitPerimeter=0;entryX=1;entryY=0.5;entryDx=0;entryDy=0;" edge="1" parent="1" source="GlmsrG5sMG7XwUcal3Ds-105" target="GlmsrG5sMG7XwUcal3Ds-64">
                    <mxGeometry relative="1" as="geometry">
                        <mxPoint x="-176.93999999999915" y="32.431320000000596" as="sourcePoint"/>
                        <mxPoint x="136" y="410" as="targetPoint"/>
                        <Array as="points">
                            <mxPoint x="150" y="33"/>
                        </Array>
                    </mxGeometry>
                </mxCell>
                <mxCell id="43" value="&lt;font style=&quot;font-size: 9px&quot;&gt;SET_CLR&lt;/font&gt;" style="text;html=1;align=center;verticalAlign=middle;resizable=0;points=[];autosize=1;strokeColor=none;fillColor=none;fontSize=14;shadow=0;" vertex="1" parent="1">
                    <mxGeometry x="84.89999999999998" y="365" width="60" height="20" as="geometry"/>
                </mxCell>
                <mxCell id="44" value="&lt;font style=&quot;font-size: 9px&quot;&gt;CRY_ENB&lt;/font&gt;" style="text;html=1;align=center;verticalAlign=middle;resizable=0;points=[];autosize=1;strokeColor=none;fillColor=none;fontSize=14;shadow=0;" vertex="1" parent="1">
                    <mxGeometry x="109.90999999999998" y="437.43" width="60" height="20" as="geometry"/>
                </mxCell>
                <mxCell id="45" value="Mux&lt;br&gt;" style="verticalLabelPosition=middle;verticalAlign=middle;html=1;shape=trapezoid;perimeter=trapezoidPerimeter;whiteSpace=wrap;size=0.23;arcSize=10;flipV=1;labelPosition=center;align=center;fontSize=18;rotation=-90;fillColor=#330000;shadow=0;" vertex="1" parent="1">
                    <mxGeometry x="-740.09" y="415" width="80" height="50" as="geometry"/>
                </mxCell>
                <mxCell id="46" style="edgeStyle=orthogonalEdgeStyle;html=1;strokeWidth=3;entryX=0.25;entryY=0;entryDx=0;entryDy=0;" edge="1" parent="1" target="45">
                    <mxGeometry relative="1" as="geometry">
                        <mxPoint x="-745.0399999999997" y="582.5" as="targetPoint"/>
                        <Array as="points">
                            <mxPoint x="-780" y="460"/>
                        </Array>
                        <mxPoint x="-780" y="460" as="sourcePoint"/>
                    </mxGeometry>
                </mxCell>
                <mxCell id="47" value="&lt;font style=&quot;font-size: 14px&quot;&gt;16'h0000&lt;/font&gt;" style="text;html=1;align=center;verticalAlign=middle;resizable=0;points=[];autosize=1;strokeColor=none;fillColor=none;fontSize=24;shadow=0;strokeWidth=5;" vertex="1" parent="1">
                    <mxGeometry x="-790" y="460" width="70" height="40" as="geometry"/>
                </mxCell>
                <mxCell id="GlmsrG5sMG7XwUcal3Ds-56" style="edgeStyle=orthogonalEdgeStyle;rounded=0;orthogonalLoop=1;jettySize=auto;html=1;entryX=0.087;entryY=-0.098;entryDx=0;entryDy=0;entryPerimeter=0;shadow=0;strokeColor=#FFFFFF;fontSize=10;fillColor=none;strokeWidth=3;" parent="1" target="GlmsrG5sMG7XwUcal3Ds-105" edge="1">
                    <mxGeometry relative="1" as="geometry">
                        <Array as="points">
                            <mxPoint x="-810" y="775"/>
                        </Array>
                        <mxPoint x="-810" y="420" as="sourcePoint"/>
                    </mxGeometry>
                </mxCell>
                <mxCell id="49" style="edgeStyle=orthogonalEdgeStyle;rounded=0;orthogonalLoop=1;jettySize=auto;html=1;entryX=1;entryY=0.5;entryDx=0;entryDy=0;strokeColor=#0000FF;fontSize=14;fillColor=#000000;shadow=0;exitX=0.5;exitY=0;exitDx=0;exitDy=0;" edge="1" parent="1" source="GlmsrG5sMG7XwUcal3Ds-48" target="45">
                    <mxGeometry relative="1" as="geometry">
                        <Array as="points">
                            <mxPoint x="-440" y="-220"/>
                            <mxPoint x="-540" y="-220"/>
                            <mxPoint x="-540" y="115"/>
                            <mxPoint x="-700" y="115"/>
                        </Array>
                        <mxPoint x="100" y="-220" as="sourcePoint"/>
                        <mxPoint x="-965" y="184.20000000000027" as="targetPoint"/>
                    </mxGeometry>
                </mxCell>
                <mxCell id="50" value="FLUSH" style="text;html=1;align=center;verticalAlign=middle;resizable=0;points=[];autosize=1;strokeColor=none;fillColor=none;fontSize=14;shadow=0;" vertex="1" parent="1">
                    <mxGeometry x="-755" y="160" width="60" height="20" as="geometry"/>
                </mxCell>
                <mxCell id="54" value="[15:0]" style="text;html=1;align=center;verticalAlign=middle;resizable=0;points=[];autosize=1;strokeColor=none;fillColor=none;fontSize=14;shadow=0;" vertex="1" parent="1">
                    <mxGeometry x="-345.09000000000003" y="680" width="50" height="20" as="geometry"/>
                </mxCell>
                <mxCell id="55" value="&lt;b&gt;Sign &lt;/b&gt;&lt;br&gt;&lt;b&gt;Extend&lt;/b&gt;" style="ellipse;whiteSpace=wrap;html=1;fontSize=14;fillColor=#001933;shadow=0;" vertex="1" parent="1">
                    <mxGeometry x="-407.59000000000003" y="710" width="80" height="60" as="geometry"/>
                </mxCell>
                <mxCell id="56" value="" style="edgeStyle=segmentEdgeStyle;endArrow=classic;html=1;rounded=0;shadow=0;strokeColor=#FFFFFF;fontSize=10;fillColor=none;strokeWidth=3;exitX=0.5;exitY=0;exitDx=0;exitDy=0;entryX=0.5;entryY=1;entryDx=0;entryDy=0;" edge="1" parent="1" source="55" target="GlmsrG5sMG7XwUcal3Ds-89">
                    <mxGeometry width="50" height="50" relative="1" as="geometry">
                        <mxPoint x="-362.79" y="700" as="sourcePoint"/>
                        <mxPoint x="-367.38000000000017" y="640" as="targetPoint"/>
                        <Array as="points"/>
                    </mxGeometry>
                </mxCell>
                <mxCell id="57" value="Mux&lt;br&gt;" style="verticalLabelPosition=middle;verticalAlign=middle;html=1;shape=trapezoid;perimeter=trapezoidPerimeter;whiteSpace=wrap;size=0.23;arcSize=10;flipV=1;labelPosition=center;align=center;fontSize=18;rotation=-90;fillColor=#330000;shadow=0;" vertex="1" parent="1">
                    <mxGeometry x="-122.5" y="417.5" width="67.5" height="32.5" as="geometry"/>
                </mxCell>
                <mxCell id="58" style="edgeStyle=orthogonalEdgeStyle;rounded=0;orthogonalLoop=1;jettySize=auto;html=1;exitX=0.415;exitY=0.034;exitDx=0;exitDy=0;entryX=0.62;entryY=0.999;entryDx=0;entryDy=0;fontSize=24;shadow=0;strokeWidth=3;entryPerimeter=0;exitPerimeter=0;" edge="1" parent="1" source="57" target="GlmsrG5sMG7XwUcal3Ds-28">
                    <mxGeometry relative="1" as="geometry">
                        <Array as="points"/>
                        <mxPoint x="-175.13999999999965" y="450.0852400000001" as="sourcePoint"/>
                        <mxPoint x="-95" y="450" as="targetPoint"/>
                    </mxGeometry>
                </mxCell>
                <mxCell id="GlmsrG5sMG7XwUcal3Ds-19" style="edgeStyle=orthogonalEdgeStyle;rounded=0;orthogonalLoop=1;jettySize=auto;html=1;exitX=0.467;exitY=0.996;exitDx=0;exitDy=0;entryX=0.414;entryY=1.009;entryDx=0;entryDy=0;fontSize=24;shadow=0;strokeWidth=3;exitPerimeter=0;entryPerimeter=0;" parent="1" source="GlmsrG5sMG7XwUcal3Ds-105" target="57" edge="1">
                    <mxGeometry relative="1" as="geometry">
                        <Array as="points"/>
                    </mxGeometry>
                </mxCell>
                <mxCell id="59" style="edgeStyle=orthogonalEdgeStyle;rounded=0;orthogonalLoop=1;jettySize=auto;html=1;shadow=0;strokeColor=#FFFFFF;fontSize=10;fillColor=none;strokeWidth=3;entryX=0.215;entryY=0.025;entryDx=0;entryDy=0;entryPerimeter=0;exitX=1;exitY=0.5;exitDx=0;exitDy=0;" edge="1" parent="1" source="GlmsrG5sMG7XwUcal3Ds-89" target="GlmsrG5sMG7XwUcal3Ds-105">
                    <mxGeometry relative="1" as="geometry">
                        <Array as="points">
                            <mxPoint x="-345" y="662"/>
                        </Array>
                        <mxPoint x="-340" y="662" as="sourcePoint"/>
                        <mxPoint x="-217.42000000000007" y="650.0636000000004" as="targetPoint"/>
                    </mxGeometry>
                </mxCell>
                <mxCell id="61" style="edgeStyle=orthogonalEdgeStyle;rounded=0;orthogonalLoop=1;jettySize=auto;html=1;strokeColor=#0000FF;fontSize=14;fillColor=#000000;shadow=0;exitX=0.899;exitY=0.988;exitDx=0;exitDy=0;exitPerimeter=0;" edge="1" parent="1" source="GlmsrG5sMG7XwUcal3Ds-105">
                    <mxGeometry relative="1" as="geometry">
                        <mxPoint x="-178" y="58" as="sourcePoint"/>
                        <mxPoint x="-79" y="413" as="targetPoint"/>
                        <Array as="points">
                            <mxPoint x="-188" y="58"/>
                            <mxPoint x="-81" y="58"/>
                            <mxPoint x="-81" y="413"/>
                        </Array>
                    </mxGeometry>
                </mxCell>
                <mxCell id="63" value="Rdst" style="text;html=1;align=center;verticalAlign=middle;resizable=0;points=[];autosize=1;strokeColor=none;fillColor=none;fontSize=14;shadow=0;" vertex="1" parent="1">
                    <mxGeometry x="58.74999999999997" y="605" width="40" height="20" as="geometry"/>
                </mxCell>
                <mxCell id="64" value="Rsrc" style="text;html=1;align=center;verticalAlign=middle;resizable=0;points=[];autosize=1;strokeColor=none;fillColor=none;fontSize=14;shadow=0;" vertex="1" parent="1">
                    <mxGeometry x="58.74999999999997" y="535" width="40" height="20" as="geometry"/>
                </mxCell>
                <mxCell id="65" value="sp" style="text;html=1;align=center;verticalAlign=middle;resizable=0;points=[];autosize=1;strokeColor=none;fillColor=none;fontSize=14;shadow=0;" vertex="1" parent="1">
                    <mxGeometry x="-167.66000000000003" y="465" width="30" height="20" as="geometry"/>
                </mxCell>
                <mxCell id="68" style="edgeStyle=orthogonalEdgeStyle;rounded=0;orthogonalLoop=1;jettySize=auto;html=1;entryX=0.318;entryY=1.056;entryDx=0;entryDy=0;fontSize=24;shadow=0;strokeWidth=3;entryPerimeter=0;exitX=0.581;exitY=0.991;exitDx=0;exitDy=0;exitPerimeter=0;" edge="1" parent="1" source="GlmsrG5sMG7XwUcal3Ds-92" target="GlmsrG5sMG7XwUcal3Ds-67">
                    <mxGeometry relative="1" as="geometry">
                        <Array as="points"/>
                        <mxPoint x="210" y="345" as="sourcePoint"/>
                        <mxPoint x="-0.010000000000218279" y="449.5999999999999" as="targetPoint"/>
                    </mxGeometry>
                </mxCell>
                <mxCell id="69" style="edgeStyle=orthogonalEdgeStyle;rounded=0;orthogonalLoop=1;jettySize=auto;html=1;entryX=0.582;entryY=-0.06;entryDx=0;entryDy=0;fontSize=24;shadow=0;strokeWidth=3;entryPerimeter=0;" edge="1" parent="1" target="GlmsrG5sMG7XwUcal3Ds-92">
                    <mxGeometry relative="1" as="geometry">
                        <Array as="points">
                            <mxPoint x="-64" y="345"/>
                        </Array>
                        <mxPoint x="-64" y="440" as="sourcePoint"/>
                        <mxPoint x="47.5" y="303.125" as="targetPoint"/>
                    </mxGeometry>
                </mxCell>
                <mxCell id="72" value="" style="edgeStyle=segmentEdgeStyle;endArrow=classic;html=1;rounded=0;shadow=0;strokeColor=#FFFFFF;fontSize=10;fillColor=none;strokeWidth=3;exitX=0.574;exitY=0.001;exitDx=0;exitDy=0;entryX=0.003;entryY=0.297;entryDx=0;entryDy=0;entryPerimeter=0;exitPerimeter=0;" edge="1" parent="1" source="GlmsrG5sMG7XwUcal3Ds-67" target="GlmsrG5sMG7XwUcal3Ds-27">
                    <mxGeometry width="50" height="50" relative="1" as="geometry">
                        <mxPoint x="505.3599999999997" y="360.03999999999996" as="sourcePoint"/>
                        <mxPoint x="350" y="320" as="targetPoint"/>
                        <Array as="points">
                            <mxPoint x="330" y="321"/>
                            <mxPoint x="330" y="321"/>
                        </Array>
                    </mxGeometry>
                </mxCell>
                <mxCell id="73" style="edgeStyle=orthogonalEdgeStyle;rounded=0;orthogonalLoop=1;jettySize=auto;html=1;entryX=0.159;entryY=1.056;entryDx=0;entryDy=0;fontSize=24;shadow=0;strokeWidth=3;entryPerimeter=0;" edge="1" parent="1" target="GlmsrG5sMG7XwUcal3Ds-67">
                    <mxGeometry relative="1" as="geometry">
                        <Array as="points">
                            <mxPoint x="239" y="360"/>
                        </Array>
                        <mxPoint x="239" y="470" as="sourcePoint"/>
                        <mxPoint x="267.47999999999956" y="354.78999999999996" as="targetPoint"/>
                    </mxGeometry>
                </mxCell>
                <mxCell id="74" value="s-aftr" style="text;html=1;align=center;verticalAlign=middle;resizable=0;points=[];autosize=1;strokeColor=none;fillColor=none;fontSize=14;shadow=0;" vertex="1" parent="1">
                    <mxGeometry x="234.99999999999997" y="400" width="50" height="20" as="geometry"/>
                </mxCell>
                <mxCell id="76" value="s-bfr" style="text;html=1;align=center;verticalAlign=middle;resizable=0;points=[];autosize=1;strokeColor=none;fillColor=none;fontSize=14;shadow=0;" vertex="1" parent="1">
                    <mxGeometry x="159.89999999999998" y="345" width="40" height="20" as="geometry"/>
                </mxCell>
                <mxCell id="78" style="edgeStyle=orthogonalEdgeStyle;rounded=0;orthogonalLoop=1;jettySize=auto;html=1;shadow=0;strokeColor=#2C2CDE;fontSize=18;entryX=0;entryY=0.5;entryDx=0;entryDy=0;strokeWidth=2;exitX=0.842;exitY=1.015;exitDx=0;exitDy=0;exitPerimeter=0;" edge="1" parent="1" source="GlmsrG5sMG7XwUcal3Ds-90" target="GlmsrG5sMG7XwUcal3Ds-89">
                    <mxGeometry relative="1" as="geometry">
                        <Array as="points">
                            <mxPoint x="670" y="126"/>
                            <mxPoint x="670" y="1000"/>
                            <mxPoint x="-410" y="1000"/>
                            <mxPoint x="-410" y="665"/>
                        </Array>
                        <mxPoint x="618.75" y="170.2800000000002" as="sourcePoint"/>
                        <mxPoint x="-320.09000000000015" y="385" as="targetPoint"/>
                    </mxGeometry>
                </mxCell>
                <mxCell id="79" value="SP_WRITE" style="text;html=1;align=center;verticalAlign=middle;resizable=0;points=[];autosize=1;strokeColor=none;fillColor=none;fontSize=14;shadow=0;" vertex="1" parent="1">
                    <mxGeometry x="-490" y="910" width="90" height="20" as="geometry"/>
                </mxCell>
                <mxCell id="80" value="" style="edgeStyle=segmentEdgeStyle;endArrow=classic;html=1;rounded=0;shadow=0;strokeColor=#FFFFFF;fontSize=10;fillColor=none;strokeWidth=3;entryX=0.141;entryY=-0.08;entryDx=0;entryDy=0;entryPerimeter=0;" edge="1" parent="1" target="GlmsrG5sMG7XwUcal3Ds-90">
                    <mxGeometry width="50" height="50" relative="1" as="geometry">
                        <mxPoint x="240" y="600" as="sourcePoint"/>
                        <mxPoint x="490" y="660" as="targetPoint"/>
                        <Array as="points">
                            <mxPoint x="240" y="730"/>
                            <mxPoint x="490" y="730"/>
                            <mxPoint x="490" y="729"/>
                        </Array>
                    </mxGeometry>
                </mxCell>
                <mxCell id="81" style="edgeStyle=orthogonalEdgeStyle;rounded=0;orthogonalLoop=1;jettySize=auto;html=1;exitX=0.148;exitY=1.065;exitDx=0;exitDy=0;fontSize=24;shadow=0;strokeWidth=3;exitPerimeter=0;entryX=0;entryY=0.75;entryDx=0;entryDy=0;" edge="1" parent="1" source="GlmsrG5sMG7XwUcal3Ds-90" target="GlmsrG5sMG7XwUcal3Ds-24">
                    <mxGeometry relative="1" as="geometry">
                        <mxPoint x="829.9099999999999" y="480" as="sourcePoint"/>
                        <Array as="points">
                            <mxPoint x="890" y="723"/>
                            <mxPoint x="890" y="900"/>
                            <mxPoint x="-430" y="900"/>
                            <mxPoint x="-430" y="570"/>
                        </Array>
                        <mxPoint x="-430" y="570" as="targetPoint"/>
                    </mxGeometry>
                </mxCell>
                <mxCell id="82" style="edgeStyle=orthogonalEdgeStyle;rounded=0;orthogonalLoop=1;jettySize=auto;html=1;fontSize=24;shadow=0;strokeWidth=3;entryX=0.5;entryY=1;entryDx=0;entryDy=0;" edge="1" parent="1" target="55">
                    <mxGeometry relative="1" as="geometry">
                        <mxPoint x="640" y="470" as="sourcePoint"/>
                        <Array as="points">
                            <mxPoint x="640" y="940"/>
                            <mxPoint x="-368" y="940"/>
                        </Array>
                        <mxPoint x="-379.97000000000025" y="609.9000000000001" as="targetPoint"/>
                    </mxGeometry>
                </mxCell>
            </root>
        </mxGraphModel>
    </diagram>
</mxfile>